<?xml version="1.0" encoding="UTF-8"?>
<svg id="Calque_1" data-name="Calque 1" xmlns="http://www.w3.org/2000/svg" viewBox="0 0 1538.3 579">
  <defs>
    <style>
      .cls-1 {
        fill: #fff;
      }

      .cls-2 {
        fill: #029939;
      }

      .cls-3 {
        fill: #7d4e24;
      }
    </style>
  </defs>
  <rect class="cls-2" x="820.3" width="718" height="579" rx="85.31" ry="85.31"/>
  <text/>
  <text/>
  <path class="cls-3" d="M28.27,500C9.42,480,0,451.78,0,415.33V164.67c0-36.44,9.42-64.67,28.27-84.67,18.84-20,46.21-30,82.09-30s63.24,10,82.09,30c18.84,20,28.27,48.23,28.27,84.67v13.91c0,19.56-15.86,35.43-35.43,35.43h0c-19.56,0-35.43-15.86-35.43-35.43v-18.58c0-28.89-12.5-43.33-37.47-43.33s-37.47,14.45-37.47,43.33V420.67c0,28.45,12.49,42.67,37.47,42.67s37.47-14.22,37.47-42.67v-35.91c0-19.56,15.86-35.43,35.43-35.43h0c19.56,0,35.43,15.86,35.43,35.43v30.58c0,36.45-9.43,64.67-28.27,84.67-18.85,20-46.22,30-82.09,30s-63.25-10-82.09-30Z"/>
  <path class="cls-3" d="M374.34,50h0c29.25,0,54.19,21.22,58.86,50.1l63.16,390.4c3.35,20.71-12.64,39.5-33.62,39.5h-5.39c-16.95,0-31.32-12.46-33.72-29.24l-9.45-66.08v1.37h-19.7c-37.57,0-69.45,27.59-74.84,64.77h0c-2.43,16.75-16.78,29.17-33.71,29.17h0c-20.98,0-36.97-18.79-33.62-39.5l63.17-390.4c4.67-28.88,29.6-50.1,58.86-50.1Zm31,320.91l-33.38-237.26h-1.36l-32.7,237.26h67.44Z"/>
  <path class="cls-3" d="M538.85,101.59c0-27.73,22.48-50.22,50.22-50.22h60.82c38.6,0,66.76,9.01,84.47,27.01,17.71,18.01,26.57,45.7,26.57,83.08v29.4c0,49.69-16.35,81.14-49.05,94.36v1.37c18.16,5.47,31,16.65,38.49,33.5,7.49,16.87,11.24,39.43,11.24,67.69v84.1c0,13.68,.45,24.73,1.36,33.16,.9,8.44,3.17,16.75,6.81,24.96h-56.65c-12.58,0-23.39-9.21-25.07-21.67,0-.07-.02-.14-.03-.21-.91-6.84-1.36-19.15-1.36-36.92v-87.52c0-21.88-3.52-37.15-10.56-45.81-7.05-8.65-19.19-12.99-36.45-12.99h-25.89v167.66c0,20.69-16.78,37.47-37.47,37.47h0c-20.69,0-37.47-16.78-37.47-37.47V101.59Zm102.19,154.91c14.99,0,26.23-3.87,33.72-11.62,7.49-7.75,11.24-20.74,11.24-38.97v-36.92c0-17.32-3.07-29.85-9.2-37.61-6.13-7.75-15.79-11.62-28.95-11.62h-34.06v136.75h27.25Z"/>
  <path class="cls-1" d="M948.64,118.57h-44.06c-18.94,0-34.29-15.35-34.29-34.29h0c0-18.94,15.35-34.29,34.29-34.29h163.05c18.94,0,34.29,15.35,34.29,34.29h0c0,18.94-15.35,34.29-34.29,34.29h-44.06V495.71c0,18.94-15.35,34.29-34.29,34.29h-6.37c-18.94,0-34.29-15.35-34.29-34.29V118.57Z"/>
  <path class="cls-1" d="M1138.02,100.68c0-27.99,22.69-50.68,50.68-50.68h60.36c38.6,0,66.76,9.03,84.47,27.09,17.71,18.07,26.57,45.84,26.57,83.32v29.48c0,49.83-16.35,81.38-49.05,94.63v1.37c18.16,5.49,31,16.69,38.49,33.6,7.49,16.92,11.24,39.55,11.24,67.89v84.34c0,13.71,.45,24.8,1.36,33.26,.9,8.46,3.17,16.8,6.81,25.03h-56.59c-12.61,0-23.45-9.24-25.13-21.74,0-.07-.02-.14-.03-.21-.91-6.86-1.36-19.2-1.36-37.03v-87.77c0-21.94-3.52-37.25-10.56-45.94-7.05-8.68-19.19-13.03-36.45-13.03h-25.89v168.25c0,20.69-16.78,37.47-37.47,37.47h0c-20.69,0-37.47-16.78-37.47-37.47V100.68Zm106.76,150.47c28.38-11.5,38.29-40.13,40.39-46.18,12.44-35.94-4.96-67.58-9.2-74.74-11.34-19.19-26.84-29.61-35.02-34.31-5.99,6.23-11.87,13.57-17.11,22.21-27.68,45.7-18.24,96.47-13.66,115.4,4.18-2.8,9.52-7.06,14.55-13.28,8.06-9.94,11.42-20.04,12.91-26.1-3.97-2.84-11.15-8.78-16.36-18.83-6.41-12.38-6.15-23.92-5.74-28.85,.42,5.59,2.75,29.37,19.4,38.17,1.51,.8,3.21,1.51,5.1,2.06,3.12-11.79,6.04-27.55,6.14-46.23,.08-15.56-1.82-28.98-4.09-39.57,2.91,8.29,5.8,18.65,7.53,30.77,1.51,10.54,1.79,20,1.54,27.94,2.68-2.47,5.71-5.82,8.41-10.2,6.83-11.06,7.49-22.13,7.4-27.7,.93,3.83,3.08,14.85-2.04,27.19-4.1,9.87-10.79,15.62-14.04,18.09-.28,6.05-1.04,11.52-2.03,16.34-.63,3.1-1.31,5.64-2.09,8.58-1.47,5.54-2.88,10.09-3.93,13.32,2.85-.63,5.96-1.57,9.2-2.97,12.7-5.5,20.18-14.99,23.87-20.64-1.79,4.67-6.63,15.35-18,23.32-6.51,4.56-12.87,6.63-17.18,7.63-2.57,6.99-5.99,14.92-10.61,23.34-4.2,7.66-8.57,14.25-12.69,19.8,6.3,.28,16.35-.12,27.33-4.57Z"/>
  <path class="cls-1" d="M1450.43,50h0c20.91,0,37.86,16.95,37.86,37.86V492.14c0,20.91-16.95,37.86-37.86,37.86h0c-20.91,0-37.86-16.95-37.86-37.86V87.86c0-20.91,16.95-37.86,37.86-37.86Z"/>
</svg>